#Comment line ignore any data following # character 
#Hierarchical Translation and Rotation (.htr) file 
[Header]	
#Header keywords are followed by a single value 
FileType HTR		#Single word string
DataType HTRS		#Translation followed by rotation and scale data
FileVersion 1		#integer
NumSegments 64		#integer
NumFrames 3		#integer
DataFrameRate 30		#integer, data frame rate in this file
EulerRotationOrder ZYX
CalibrationUnits mm
RotationUnits Degrees
GlobalAxisofGravity Y
BoneLengthAxis Y
ScaleFactor 1.00
[SegmentNames&Hierarchy]
#CHILD	PARENT
Pinger_Root GLOBAL
Pelvis Pinger_Root
L_Hip Pelvis
R_Hip Pelvis
Rear_Leg01 Pelvis
Spine1 Pelvis
L_Leg01 L_Hip
L_Leg02 L_Leg01
L_Leg03 L_Leg02
L_Foot L_Leg03
L_Toe1_01 L_Foot
L_Toe2_01 L_Foot
L_Toe3_01 L_Foot
planeAlignerLeft L_Foot
L_Toe1_02 L_Toe1_01
L_Toe1_03 L_Toe1_02
L_Toe2_02 L_Toe2_01
L_Toe2_03 L_Toe2_02
L_Toe3_02 L_Toe3_01
L_Toe3_03 L_Toe3_02
planeLockWeightLeft planeAlignerLeft
R_Leg01 R_Hip
R_Leg02 R_Leg01
R_Leg03 R_Leg02
R_Foot R_Leg03
planeAlignerRight R_Foot
R_Toe1_01 R_Foot
R_Toe2_01 R_Foot
R_Toe3_01 R_Foot
planeLockWeightRight planeAlignerRight
R_Toe1_02 R_Toe1_01
R_Toe1_03 R_Toe1_02
R_Toe2_02 R_Toe2_01
R_Toe2_03 R_Toe2_02
R_Toe3_02 R_Toe3_01
R_Toe3_03 R_Toe3_02
Rear_Leg02 Rear_Leg01
Rear_Leg03 Rear_Leg02
Rear_Leg04 Rear_Leg03
Rear_Foot Rear_Leg04
planeAlignerCenter Rear_Foot
Rear_Toe1_01 Rear_Foot
Rear_Toe2_01 Rear_Foot
Rear_Toe3_01 Rear_Foot
planeLockWeightCenter planeAlignerCenter
Rear_Toe1_02 Rear_Toe1_01
Rear_Toe1_03 Rear_Toe1_02
Rear_Toe2_02 Rear_Toe2_01
Rear_Toe2_03 Rear_Toe2_02
Rear_Toe3_02 Rear_Toe3_01
Rear_Toe3_03 Rear_Toe3_02
Back_Bone Spine1
Head Spine1
Motor_Bone Back_Bone
Ping_Mechanism Back_Bone
BN_LookIK Head
bottomMouth Head
L_Mouth01 Head
L_mouthFront Head
mouthGun Head
R_Mouth01 Head
R_mouthFront Head
TopMouth Head
weapon_bone Head
[BasePosition]
#SegmentName Tx, Ty, Tz, Rx, Ry, Rz, BoneLength
Pinger_Root 0.000000 0.000000 0.000000 -90.000000 0.000000 0.000000 10.000000 
Pelvis 0.000000 0.000000 0.000000 0.000000 0.000000 0.000000 10.000000 
L_Hip 0.000000 0.000000 0.000000 0.000000 0.000000 0.000000 10.000000 
R_Hip 0.000000 0.000000 0.000000 0.000000 0.000000 0.000000 10.000000 
Rear_Leg01 0.000000 0.000000 0.000000 0.000000 0.000000 0.000000 10.000000 
Spine1 0.000000 0.000000 0.000000 0.000000 0.000000 0.000000 10.000000 
L_Leg01 0.000000 0.000000 0.000000 0.000000 0.000000 0.000000 10.000000 
L_Leg02 0.000000 0.000000 0.000000 0.000000 0.000000 0.000000 10.000000 
L_Leg03 0.000000 0.000000 0.000000 0.000000 0.000000 0.000000 10.000000 
L_Foot 0.000000 0.000000 0.000000 0.000000 0.000000 0.000000 10.000000 
L_Toe1_01 0.000000 0.000000 0.000000 0.000000 0.000000 0.000000 10.000000 
L_Toe2_01 0.000000 0.000000 0.000000 0.000000 0.000000 0.000000 10.000000 
L_Toe3_01 0.000000 0.000000 0.000000 0.000000 0.000000 0.000000 10.000000 
planeAlignerLeft 0.000000 0.000000 0.000000 0.000000 0.000000 0.000000 10.000000 
L_Toe1_02 0.000000 0.000000 0.000000 0.000000 0.000000 0.000000 10.000000 
L_Toe1_03 0.000000 0.000000 0.000000 0.000000 0.000000 0.000000 10.000000 
L_Toe2_02 0.000000 0.000000 0.000000 0.000000 0.000000 0.000000 10.000000 
L_Toe2_03 0.000000 0.000000 0.000000 0.000000 0.000000 0.000000 10.000000 
L_Toe3_02 0.000000 0.000000 0.000000 0.000000 0.000000 0.000000 10.000000 
L_Toe3_03 0.000000 0.000000 0.000000 0.000000 0.000000 0.000000 10.000000 
planeLockWeightLeft 0.000000 0.000000 0.000000 0.000000 0.000000 0.000000 10.000000 
R_Leg01 0.000000 0.000000 0.000000 0.000000 0.000000 0.000000 10.000000 
R_Leg02 0.000000 0.000000 0.000000 0.000000 0.000000 0.000000 10.000000 
R_Leg03 0.000000 0.000000 0.000000 0.000000 0.000000 0.000000 10.000000 
R_Foot 0.000000 0.000000 0.000000 0.000000 0.000000 0.000000 10.000000 
planeAlignerRight 0.000000 0.000000 0.000000 0.000000 0.000000 0.000000 10.000000 
R_Toe1_01 0.000000 0.000000 0.000000 0.000000 0.000000 0.000000 10.000000 
R_Toe2_01 0.000000 0.000000 0.000000 0.000000 0.000000 0.000000 10.000000 
R_Toe3_01 0.000000 0.000000 0.000000 0.000000 0.000000 0.000000 10.000000 
planeLockWeightRight 0.000000 0.000000 0.000000 0.000000 0.000000 0.000000 10.000000 
R_Toe1_02 0.000000 0.000000 0.000000 0.000000 0.000000 0.000000 10.000000 
R_Toe1_03 0.000000 0.000000 0.000000 0.000000 0.000000 0.000000 10.000000 
R_Toe2_02 0.000000 0.000000 0.000000 0.000000 0.000000 0.000000 10.000000 
R_Toe2_03 0.000000 0.000000 0.000000 0.000000 0.000000 0.000000 10.000000 
R_Toe3_02 0.000000 0.000000 0.000000 0.000000 0.000000 0.000000 10.000000 
R_Toe3_03 0.000000 0.000000 0.000000 0.000000 0.000000 0.000000 10.000000 
Rear_Leg02 0.000000 0.000000 0.000000 0.000000 0.000000 0.000000 10.000000 
Rear_Leg03 0.000000 0.000000 0.000000 0.000000 0.000000 0.000000 10.000000 
Rear_Leg04 0.000000 0.000000 0.000000 0.000000 0.000000 0.000000 10.000000 
Rear_Foot 0.000000 0.000000 0.000000 0.000000 0.000000 0.000000 10.000000 
planeAlignerCenter 0.000000 0.000000 0.000000 0.000000 0.000000 0.000000 10.000000 
Rear_Toe1_01 0.000000 0.000000 0.000000 0.000000 0.000000 0.000000 10.000000 
Rear_Toe2_01 0.000000 0.000000 0.000000 0.000000 0.000000 0.000000 10.000000 
Rear_Toe3_01 0.000000 0.000000 0.000000 0.000000 0.000000 0.000000 10.000000 
planeLockWeightCenter 0.000000 0.000000 0.000000 0.000000 0.000000 0.000000 10.000000 
Rear_Toe1_02 0.000000 0.000000 0.000000 0.000000 0.000000 0.000000 10.000000 
Rear_Toe1_03 0.000000 0.000000 0.000000 0.000000 0.000000 0.000000 10.000000 
Rear_Toe2_02 0.000000 0.000000 0.000000 0.000000 0.000000 0.000000 10.000000 
Rear_Toe2_03 0.000000 0.000000 0.000000 0.000000 0.000000 0.000000 10.000000 
Rear_Toe3_02 0.000000 0.000000 0.000000 0.000000 0.000000 0.000000 10.000000 
Rear_Toe3_03 0.000000 0.000000 0.000000 0.000000 0.000000 0.000000 10.000000 
Back_Bone 0.000000 0.000000 0.000000 0.000000 0.000000 0.000000 10.000000 
Head 0.000000 0.000000 0.000000 0.000000 0.000000 0.000000 10.000000 
Motor_Bone 0.000000 0.000000 0.000000 0.000000 0.000000 0.000000 10.000000 
Ping_Mechanism 0.000000 0.000000 0.000000 0.000000 0.000000 0.000000 10.000000 
BN_LookIK 0.000000 0.000000 0.000000 0.000000 0.000000 0.000000 10.000000 
bottomMouth 0.000000 0.000000 0.000000 0.000000 0.000000 0.000000 10.000000 
L_Mouth01 0.000000 0.000000 0.000000 0.000000 0.000000 0.000000 10.000000 
L_mouthFront 0.000000 0.000000 0.000000 0.000000 0.000000 0.000000 10.000000 
mouthGun 0.000000 0.000000 0.000000 0.000000 0.000000 0.000000 10.000000 
R_Mouth01 0.000000 0.000000 0.000000 0.000000 0.000000 0.000000 10.000000 
R_mouthFront 0.000000 0.000000 0.000000 0.000000 0.000000 0.000000 10.000000 
TopMouth 0.000000 0.000000 0.000000 0.000000 0.000000 0.000000 10.000000 
weapon_bone 0.000000 0.000000 0.000000 0.000000 0.000000 0.000000 10.000000 
#Beginning of Data. Separated by tabs
#Fr	Tx	Ty	Tz	Rx	Ry	Rz	SF
[Pinger_Root]
151 0.000000 0.000000 0.000000 -0.000075 -0.000000 -0.000020 0.000000
152 0.000000 0.000000 0.000000 -0.000075 -0.000000 -0.000020 0.000000
153 0.000000 0.000000 0.000000 -0.000075 -0.000000 -0.000020 0.000000
[Pelvis]
151 -124.873825 983.094849 3804.312256 -153.905380 -80.962410 146.545105 3931.267090
152 -125.644249 983.227051 3804.074951 -153.905380 -80.962410 146.545105 3931.094971
153 -126.414673 983.359314 3803.838135 -153.905380 -80.962387 146.545105 3930.923584
[L_Hip]
151 5.766392 125.831482 872.656799 128.302734 -46.183334 174.373032 881.701050
152 5.766392 125.831482 872.656799 128.312836 -46.179928 174.356979 881.701050
153 5.766392 125.831482 872.656799 128.322937 -46.176514 174.340942 881.701050
[R_Hip]
151 5.765438 125.836372 -872.654907 37.073799 50.464653 124.382729 881.699829
152 5.765438 125.836372 -872.654907 37.074890 50.464069 124.384087 881.699829
153 5.765438 125.836372 -872.654907 37.075943 50.463451 124.385406 881.699829
[Rear_Leg01]
151 -192.298416 -925.602966 -0.001907 167.444733 -1.317945 -154.016968 945.367432
152 -192.298416 -925.602966 -0.001907 167.447479 -1.308665 -154.014679 945.367432
153 -192.298416 -925.602966 -0.001907 167.450211 -1.299385 -154.012375 945.367432
[Spine1]
151 290.604584 5.007505 0.000477 9.693883 4.908047 19.142799 290.647736
152 290.604584 5.007505 0.000477 9.693789 4.898294 19.141150 290.647736
153 290.604584 5.007505 0.000477 9.693692 4.888541 19.139503 290.647736
[L_Leg01]
151 761.932007 -0.002384 -0.069261 53.986416 -35.913368 22.398035 761.932068
152 761.932007 -0.002384 -0.069261 53.979591 -35.924072 22.404802 761.932068
153 761.932007 -0.002384 -0.069261 53.972740 -35.934769 22.411573 761.932068
[L_Leg02]
151 1441.140503 -0.000954 -0.000715 8.514344 4.831752 -141.284058 1441.140503
152 1441.140503 -0.000954 -0.000715 8.517166 4.836481 -141.326141 1441.140503
153 1441.140503 -0.000954 -0.000715 8.519983 4.841209 -141.368179 1441.140503
[L_Leg03]
151 1686.963989 -0.000715 -0.000954 -0.142833 0.093527 148.506485 1686.963989
152 1686.963989 -0.000715 -0.000954 -0.142851 0.093643 148.519440 1686.963989
153 1686.963989 -0.000715 -0.000954 -0.142868 0.093758 148.532394 1686.963989
[L_Foot]
151 3041.570068 -30.715107 11.297464 -14.707126 45.010925 35.512409 3041.746094
152 3041.570068 -30.715107 11.297464 -14.698736 45.009510 35.532520 3041.746094
153 3041.570068 -30.715107 11.297464 -14.690349 45.008072 35.552624 3041.746094
[L_Toe1_01]
151 -188.216690 -224.732346 -21.137953 95.648026 -5.535594 169.255402 293.899567
152 -188.216690 -224.732346 -21.137953 95.647980 -5.535766 169.256348 293.899567
153 -188.216690 -224.732346 -21.137953 95.647964 -5.535938 169.257309 293.899567
[L_Toe2_01]
151 200.746536 -219.926590 148.838394 -96.551720 -26.053352 -37.639248 332.896027
152 200.746536 -219.926590 148.838394 -96.551407 -26.053389 -37.640003 332.896027
153 200.746536 -219.926590 148.838394 -96.551094 -26.053425 -37.640766 332.896027
[L_Toe3_01]
151 188.832520 -219.859131 -191.078659 -96.725952 17.873425 -55.961151 347.140900
152 188.832520 -219.859131 -191.078659 -96.726059 17.873142 -55.961849 347.140900
153 188.832520 -219.859131 -191.078659 -96.726166 17.872854 -55.962551 347.140900
[planeAlignerLeft]
151 0.812531 -811.448792 -0.314951 0.000000 -90.000000 -90.001900 811.449280
152 0.812531 -811.448792 -0.314951 0.000000 -90.000000 -90.001900 811.449280
153 0.812531 -811.448792 -0.314951 0.000000 -90.000000 -90.001900 811.449280
[L_Toe1_02]
151 413.761139 0.000477 0.000000 0.001442 -18.947865 0.001442 413.761139
152 413.761139 0.000477 0.000000 0.001442 -18.948772 0.001442 413.761139
153 413.761139 0.000477 0.000000 0.001442 -18.949684 0.001442 413.761139
[L_Toe1_03]
151 464.317322 0.000358 -0.000089 -179.986008 85.816994 -179.982513 464.317322
152 464.317322 0.000358 -0.000089 -179.986008 85.818062 -179.982498 464.317322
153 464.317322 0.000358 -0.000089 -179.985992 85.819099 -179.982498 464.317322
[L_Toe2_02]
151 342.235809 -0.000477 0.000238 0.004685 -80.854385 0.004685 342.235809
152 342.235809 -0.000477 0.000238 0.004685 -80.853249 0.004685 342.235809
153 342.235809 -0.000477 0.000238 0.004685 -80.852196 0.004685 342.235809
[L_Toe2_03]
151 420.210846 -0.000715 0.000000 179.992340 55.894604 179.999649 420.210846
152 420.210846 -0.000715 0.000000 179.992340 55.895538 179.999649 420.210846
153 420.210846 -0.000715 0.000000 179.992340 55.896465 179.999649 420.210846
[L_Toe3_02]
151 329.270111 0.000954 0.000000 0.004675 -84.670494 0.004675 329.270111
152 329.270111 0.000954 0.000000 0.004675 -84.670418 0.004675 329.270111
153 329.270111 0.000954 0.000000 0.004675 -84.670387 0.004675 329.270111
[L_Toe3_03]
151 439.137451 -0.001907 0.000954 179.993134 45.377392 -179.999313 439.137451
152 439.137451 -0.001907 0.000954 179.993134 45.378483 -179.999313 439.137451
153 439.137451 -0.001907 0.000954 179.993134 45.379570 -179.999313 439.137451
[planeLockWeightLeft]
151 -0.000954 0.000238 -0.000305 -0.011826 -0.004376 0.005620 0.001029
152 -0.000954 0.000238 -0.000305 -0.011826 -0.004376 0.005620 0.001029
153 -0.000954 0.000238 -0.000305 -0.011826 -0.004376 0.005620 0.001029
[R_Leg01]
151 761.455627 -0.001907 -0.000358 122.869270 -15.576726 34.045910 761.455688
152 761.455627 -0.001907 -0.000358 122.865707 -15.570972 34.037708 761.455688
153 761.455627 -0.001907 -0.000358 122.862129 -15.565219 34.029510 761.455688
[R_Leg02]
151 1441.140625 0.000000 -0.000238 -2.003350 -0.541448 -137.665146 1441.140625
152 1441.140625 0.000000 -0.000238 -2.003236 -0.541471 -137.663742 1441.140625
153 1441.140625 0.000000 -0.000238 -2.003121 -0.541493 -137.662354 1441.140625
[R_Leg03]
151 1686.963989 0.000954 0.001431 0.093321 -0.054700 135.889496 1686.963989
152 1686.963989 0.000954 0.001431 0.093321 -0.054701 135.890381 1686.963989
153 1686.963989 0.000954 0.001431 0.093320 -0.054701 135.891266 1686.963989
[R_Foot]
151 3041.560059 -30.531288 -11.204481 4.047421 -24.242506 59.457588 3041.734131
152 3041.560059 -30.531288 -11.204481 4.059280 -24.242214 59.453472 3041.734131
153 3041.560059 -30.531288 -11.204481 4.071141 -24.241920 59.449368 3041.734131
[planeAlignerRight]
151 -0.635147 -812.270569 -0.364304 0.000000 -89.960434 -90.005180 812.270874
152 -0.635147 -812.270569 -0.364304 0.000000 -89.960434 -90.005180 812.270874
153 -0.635147 -812.270569 -0.364304 0.000000 -89.960434 -90.005180 812.270874
[R_Toe1_01]
151 -188.383347 -224.864899 21.052242 77.185806 -3.248484 172.312866 294.101532
152 -188.383347 -224.864899 21.052242 77.185753 -3.248369 172.313278 294.101532
153 -188.383347 -224.864899 21.052242 77.185722 -3.248254 172.313721 294.101532
[R_Toe2_01]
151 200.637817 -220.002121 -148.787384 -84.915100 32.505970 -46.607960 332.857574
152 200.637817 -220.002121 -148.787384 -84.915413 32.505962 -46.608547 332.857574
153 200.637817 -220.002121 -148.787384 -84.915726 32.505955 -46.609135 332.857574
[R_Toe3_01]
151 188.606735 -220.092957 191.126343 -74.389954 -14.483307 -66.167091 347.192566
152 188.606735 -220.092957 191.126343 -74.389946 -14.483085 -66.167564 347.192566
153 188.606735 -220.092957 191.126343 -74.389954 -14.482864 -66.168045 347.192566
[planeLockWeightRight]
151 -0.000477 0.000000 0.000000 -0.011823 -0.004379 -0.000027 0.000477
152 -0.000477 0.000000 0.000000 -0.011823 -0.004379 -0.000027 0.000477
153 -0.000477 0.000000 0.000000 -0.011823 -0.004379 -0.000027 0.000477
[R_Toe1_02]
151 413.762085 0.000477 -0.000119 0.001470 -15.998274 0.001470 413.762085
152 413.762085 0.000477 -0.000119 0.001470 -15.998909 0.001470 413.762085
153 413.762085 0.000477 -0.000119 0.001470 -15.999548 0.001470 413.762085
[R_Toe1_03]
151 464.317810 0.000000 0.001088 -179.996872 76.510170 -179.993347 464.317810
152 464.317810 0.000000 0.001088 -179.996872 76.510643 -179.993347 464.317810
153 464.317810 0.000000 0.001088 -179.996872 76.511078 -179.993347 464.317810
[R_Toe2_02]
151 342.234741 -0.000954 0.000238 -0.002332 -79.693474 -0.002332 342.234741
152 342.234741 -0.000954 0.000238 -0.002332 -79.692940 -0.002332 342.234741
153 342.234741 -0.000954 0.000238 -0.002333 -79.692406 -0.002333 342.234741
[R_Toe2_03]
151 420.210846 0.000715 -0.000268 -179.995560 65.028404 -179.999130 420.210846
152 420.210846 0.000715 -0.000268 -179.995560 65.028854 -179.999130 420.210846
153 420.210846 0.000715 -0.000268 -179.995560 65.029251 -179.999130 420.210846
[R_Toe3_02]
151 329.270355 -0.000477 -0.000954 0.001175 -83.663986 0.001175 329.270355
152 329.270355 -0.000477 -0.000954 0.001175 -83.663574 0.001175 329.270355
153 329.270355 -0.000477 -0.000954 0.001175 -83.663155 0.001175 329.270355
[R_Toe3_03]
151 439.137939 0.000238 0.001431 -179.994339 61.003017 -179.987106 439.137939
152 439.137939 0.000238 0.001431 -179.994339 61.003536 -179.987106 439.137939
153 439.137939 0.000238 0.001431 -179.994339 61.004074 -179.987106 439.137939
[Rear_Leg02]
151 1162.777710 -0.029802 0.005960 1.565101 -2.520592 -144.004852 1162.777710
152 1162.777710 -0.029802 0.005960 1.565167 -2.520466 -144.006271 1162.777710
153 1162.777710 -0.029802 0.005960 1.565233 -2.520340 -144.007690 1162.777710
[Rear_Leg03]
151 607.192505 -0.013351 -0.073195 0.010356 -0.005377 71.232285 607.192505
152 607.192505 -0.013351 -0.073195 0.010356 -0.005377 71.234230 607.192505
153 607.192505 -0.013351 -0.073195 0.010356 -0.005377 71.236176 607.192505
[Rear_Leg04]
151 995.874512 -0.020504 -0.011921 -0.041133 -0.016646 73.296684 995.874573
152 995.874512 -0.020504 -0.011921 -0.041133 -0.016645 73.298500 995.874573
153 995.874512 -0.020504 -0.011921 -0.041133 -0.016645 73.300323 995.874573
[Rear_Foot]
151 3096.176270 -0.067472 -0.041425 -119.284203 87.388802 78.582886 3096.176270
152 3096.176270 -0.067472 -0.041425 -119.116714 87.393379 78.754944 3096.176270
153 3096.176270 -0.067472 -0.041425 -118.948387 87.397896 78.927666 3096.176270
[planeAlignerCenter]
151 0.350077 0.966311 -838.790894 0.000009 0.000003 -179.999985 838.791565
152 0.350077 0.966311 -838.790894 0.000009 0.000003 -179.999985 838.791565
153 0.350077 0.966311 -838.790894 0.000009 0.000003 -179.999985 838.791565
[Rear_Toe1_01]
151 0.653352 83.966492 -371.173737 0.292563 41.139259 90.406425 380.553192
152 0.653352 83.966492 -371.173737 0.292581 41.139275 90.406418 380.553192
153 0.653352 83.966492 -371.173737 0.292604 41.139294 90.406425 380.553192
[Rear_Toe2_01]
151 178.200760 -294.826019 -362.060547 -7.262761 33.855259 -66.230255 499.765686
152 178.200760 -294.826019 -362.060547 -7.262780 33.855289 -66.230278 499.765686
153 178.200760 -294.826019 -362.060547 -7.262799 33.855312 -66.230286 499.765686
[Rear_Toe3_01]
151 -153.359680 -308.780914 -362.060852 3.322300 32.989574 -112.582558 499.952881
152 -153.359680 -308.780914 -362.060852 3.322300 32.989574 -112.582558 499.952881
153 -153.359680 -308.780914 -362.060852 3.322300 32.989574 -112.582558 499.952881
[planeLockWeightCenter]
151 -0.000062 0.000238 0.000000 -0.011814 -0.004373 -0.000015 0.000246
152 -0.000062 0.000238 0.000000 -0.011814 -0.004373 -0.000015 0.000246
153 -0.000062 0.000238 0.000000 -0.011814 -0.004373 -0.000015 0.000246
[Rear_Toe1_02]
151 379.707825 0.194073 0.000477 -0.000261 -31.944153 0.006945 379.707855
152 379.707825 0.194073 0.000477 -0.000261 -31.944153 0.006945 379.707855
153 379.707825 0.194073 0.000477 -0.000261 -31.944153 0.006945 379.707855
[Rear_Toe1_03]
151 500.129700 0.165701 0.000119 0.000045 53.309292 0.007413 500.129761
152 500.129700 0.165701 0.000119 0.000045 53.309292 0.007413 500.129761
153 500.129700 0.165701 0.000119 0.000045 53.309292 0.007413 500.129761
[Rear_Toe2_02]
151 340.494507 0.000238 -0.000954 0.001191 -70.483078 0.001191 340.494507
152 340.494507 0.000238 -0.000954 0.001191 -70.483078 0.001191 340.494507
153 340.494507 0.000238 -0.000954 0.001191 -70.483078 0.001191 340.494507
[Rear_Toe2_03]
151 433.103577 0.000000 0.000238 0.007023 70.760963 0.007023 433.103546
152 433.103577 0.000000 0.000238 0.007023 70.760918 0.007023 433.103546
153 433.103577 0.000000 0.000238 0.007023 70.760895 0.007023 433.103546
[Rear_Toe3_02]
151 340.494141 -0.000358 -0.000477 0.007220 -67.923401 -0.007749 340.494171
152 340.494141 -0.000358 -0.000477 0.007261 -67.923424 -0.007809 340.494171
153 340.494141 -0.000358 -0.000477 0.007301 -67.923401 -0.007868 340.494171
[Rear_Toe3_03]
151 433.103577 0.001431 -0.000238 0.005867 66.923714 0.005867 433.103546
152 433.103577 0.001431 -0.000238 0.005867 66.923668 0.005867 433.103546
153 433.103577 0.001431 -0.000238 0.005867 66.923637 0.005867 433.103546
[Back_Bone]
151 1312.175781 -701.934692 0.000954 1.464550 0.133063 -93.018684 1488.125488
152 1312.175781 -701.934692 0.000954 1.464553 0.130268 -93.017891 1488.125488
153 1312.175781 -701.934692 0.000954 1.464556 0.127473 -93.017090 1488.125488
[Head]
151 1406.159424 809.709290 0.001431 2.838405 -9.587686 15.168656 1622.625488
152 1406.159424 809.709290 0.001431 2.840471 -9.689594 15.163753 1622.625488
153 1406.159424 809.709290 0.001431 2.835356 -9.179281 15.188881 1622.625488
[Motor_Bone]
151 1158.364380 -417.834747 0.000477 -0.000105 0.000046 -105.985291 1231.419434
152 1158.364380 -417.834747 0.000477 -0.000105 0.000046 -105.985291 1231.419434
153 1158.364380 -417.834747 0.000477 -0.000105 0.000046 -105.985291 1231.419434
[Ping_Mechanism]
151 1240.262695 -439.022583 -37.256168 0.000103 -0.000053 82.120995 1316.199219
152 1240.261963 -439.027802 -37.255890 0.000103 -0.000053 82.120995 1316.200195
153 1240.261108 -439.033020 -37.255611 0.000103 -0.000053 82.120995 1316.201172
[BN_LookIK]
151 193.241119 1380.371704 -0.002861 0.000000 89.965736 -31.038179 1393.832153
152 193.241119 1380.371704 -0.002861 0.000000 89.965736 -31.038179 1393.832153
153 193.241119 1380.371704 -0.002861 0.000000 89.965736 -31.038179 1393.832153
[bottomMouth]
151 -435.092926 615.759399 -0.000954 -0.000022 0.000016 73.527184 753.966492
152 -435.092926 615.759399 -0.000954 -0.000022 0.000016 73.527184 753.966492
153 -435.092926 615.759399 -0.000954 -0.000022 0.000016 73.527184 753.966492
[L_Mouth01]
151 554.440979 7.658243 838.222046 150.204178 23.759130 109.605339 1005.027161
152 554.440979 7.658243 838.222046 150.204178 23.759130 109.605339 1005.027161
153 554.440979 7.658243 838.222046 150.204178 23.759130 109.605339 1005.027161
[L_mouthFront]
151 551.629089 934.514771 339.150421 0.000081 2.804060 79.119301 1136.941284
152 551.629089 934.514771 339.150421 0.000081 2.804060 79.119301 1136.941284
153 551.629089 934.514771 339.150421 0.000081 2.804060 79.119301 1136.941284
[mouthGun]
151 55.332661 1627.420898 0.000000 0.000023 0.000009 -11.038128 1628.361328
152 55.332661 1627.420898 0.000000 0.000023 0.000009 -11.038128 1628.361328
153 55.332661 1627.420898 0.000000 0.000023 0.000009 -11.038128 1628.361328
[R_Mouth01]
151 554.442383 7.659197 -838.223938 29.795891 -23.759109 109.605331 1005.029541
152 554.442383 7.659197 -838.223938 29.795891 -23.759109 109.605331 1005.029541
153 554.442383 7.659197 -838.223938 29.795891 -23.759109 109.605331 1005.029541
[R_mouthFront]
151 551.629089 934.514282 -339.151367 0.000029 -2.803930 79.119133 1136.941162
152 551.629089 934.514282 -339.151367 0.000029 -2.803930 79.119133 1136.941162
153 551.629089 934.514282 -339.151367 0.000029 -2.803930 79.119133 1136.941162
[TopMouth]
151 461.269867 -56.106091 -0.008583 -0.000059 -0.000268 92.025169 464.669525
152 461.269867 -56.106091 -0.008583 -0.000059 -0.000268 92.025169 464.669525
153 461.269867 -56.106091 -0.008583 -0.000059 -0.000268 92.025169 464.669525
[weapon_bone]
151 -987.239868 1448.372803 0.001431 0.000000 89.965736 -31.038221 1752.833740
152 -987.239868 1448.372803 0.001431 0.000000 89.965736 -31.038221 1752.833740
153 -987.239868 1448.372803 0.001431 0.000000 89.965736 -31.038221 1752.833740
